<svg width="36" height="36" viewBox="0 0 36 36" fill="none" xmlns="http://www.w3.org/2000/svg">
<path d="M29.3753 6H8.94499C7.33537 6 6.02637 7.3455 6.02637 9V16.5H8.94499V12L18.2846 19.2C18.5373 19.3945 18.8445 19.4996 19.1602 19.4996C19.4759 19.4996 19.7831 19.3945 20.0358 19.2L29.3753 12V25.5H17.7009V28.5H29.3753C30.985 28.5 32.294 27.1545 32.294 25.5V9C32.294 7.3455 30.985 6 29.3753 6ZM19.1602 16.125L9.91689 9H28.4034L19.1602 16.125Z" fill="white"/>
<path d="M3.1084 18H13.3236V21H3.1084V18ZM6.02702 22.5H14.7829V25.5H6.02702V22.5ZM10.405 27H16.2422V30H10.405V27Z" fill="white"/>
</svg>
